<svg width="19" height="21" viewBox="0 0 19 21" fill="none" xmlns="http://www.w3.org/2000/svg">
<path d="M17.7083 20.8333H1.04167C0.765399 20.8333 0.500447 20.7236 0.305097 20.5282C0.109747 20.3329 0 20.0679 0 19.7917V1.04167C0 0.765399 0.109747 0.500447 0.305097 0.305097C0.500447 0.109747 0.765399 0 1.04167 0H17.7083C17.9846 0 18.2496 0.109747 18.4449 0.305097C18.6403 0.500447 18.75 0.765399 18.75 1.04167V19.7917C18.75 20.0679 18.6403 20.3329 18.4449 20.5282C18.2496 20.7236 17.9846 20.8333 17.7083 20.8333ZM16.6667 18.75V2.08333H2.08333V18.75H16.6667ZM5.20833 5.20833H13.5417V7.29167H5.20833V5.20833ZM5.20833 9.375H13.5417V11.4583H5.20833V9.375ZM5.20833 13.5417H10.4167V15.625H5.20833V13.5417Z" fill="#0D1126" fill-opacity="0.4"/>
</svg>
