<svg width="20" height="23" viewBox="0 0 20 23" fill="none" xmlns="http://www.w3.org/2000/svg">
<path d="M8.33333 13.5417V15.625C6.67573 15.625 5.08602 16.2835 3.91392 17.4556C2.74181 18.6277 2.08333 20.2174 2.08333 21.875H0C0 19.6649 0.877974 17.5452 2.44078 15.9824C4.00358 14.4196 6.1232 13.5417 8.33333 13.5417ZM8.33333 12.5C4.88021 12.5 2.08333 9.70313 2.08333 6.25C2.08333 2.79688 4.88021 0 8.33333 0C11.7865 0 14.5833 2.79688 14.5833 6.25C14.5833 9.70313 11.7865 12.5 8.33333 12.5ZM8.33333 10.4167C10.6354 10.4167 12.5 8.55208 12.5 6.25C12.5 3.94792 10.6354 2.08333 8.33333 2.08333C6.03125 2.08333 4.16667 3.94792 4.16667 6.25C4.16667 8.55208 6.03125 10.4167 8.33333 10.4167ZM14.5833 21.3542L11.5219 22.9635L12.1063 19.5552L9.63021 17.1406L13.0531 16.6427L14.5833 13.5417L16.1146 16.6427L19.5365 17.1406L17.0604 19.5552L17.6438 22.9635L14.5833 21.3542Z" fill="#0D1126" fill-opacity="0.4"/>
</svg>
