<svg width="22" height="28" viewBox="0 0 22 28" fill="none" xmlns="http://www.w3.org/2000/svg">
<path d="M21.3333 28H18.6667V25.3333C18.6667 24.2725 18.2452 23.2551 17.4951 22.5049C16.7449 21.7548 15.7275 21.3333 14.6667 21.3333H6.66667C5.6058 21.3333 4.58839 21.7548 3.83824 22.5049C3.08809 23.2551 2.66667 24.2725 2.66667 25.3333V28H0V25.3333C0 23.5652 0.702379 21.8695 1.95262 20.6193C3.20286 19.369 4.89856 18.6667 6.66667 18.6667H14.6667C16.4348 18.6667 18.1305 19.369 19.3807 20.6193C20.631 21.8695 21.3333 23.5652 21.3333 25.3333V28ZM10.6667 16C9.61609 16 8.5758 15.7931 7.6052 15.391C6.63459 14.989 5.75268 14.3997 5.00981 13.6569C4.26694 12.914 3.67767 12.0321 3.27563 11.0615C2.87359 10.0909 2.66667 9.05058 2.66667 8C2.66667 6.94943 2.87359 5.90914 3.27563 4.93853C3.67767 3.96793 4.26694 3.08601 5.00981 2.34315C5.75268 1.60028 6.63459 1.011 7.6052 0.608964C8.5758 0.206926 9.61609 -1.56548e-08 10.6667 0C12.7884 3.16163e-08 14.8232 0.842855 16.3235 2.34315C17.8238 3.84344 18.6667 5.87827 18.6667 8C18.6667 10.1217 17.8238 12.1566 16.3235 13.6569C14.8232 15.1571 12.7884 16 10.6667 16ZM10.6667 13.3333C12.0812 13.3333 13.4377 12.7714 14.4379 11.7712C15.4381 10.771 16 9.41449 16 8C16 6.58551 15.4381 5.22896 14.4379 4.22876C13.4377 3.22857 12.0812 2.66667 10.6667 2.66667C9.25218 2.66667 7.89562 3.22857 6.89543 4.22876C5.89524 5.22896 5.33333 6.58551 5.33333 8C5.33333 9.41449 5.89524 10.771 6.89543 11.7712C7.89562 12.7714 9.25218 13.3333 10.6667 13.3333Z" fill="#00318B"/>
</svg>
