<svg width="6" height="7" viewBox="0 0 6 7" fill="none" xmlns="http://www.w3.org/2000/svg">
<path fill-rule="evenodd" clip-rule="evenodd" d="M2.85409 5.92428e-09C3.1932 -2.8178e-05 3.5247 0.100505 3.80667 0.288884C4.08865 0.477262 4.30843 0.745027 4.43822 1.05831C4.56801 1.3716 4.60198 1.71634 4.53584 2.04894C4.4697 2.38153 4.30642 2.68705 4.06664 2.92684C3.82687 3.16664 3.52136 3.32995 3.18877 3.39612C2.85618 3.46229 2.51144 3.42834 2.19814 3.29858C1.88484 3.16881 1.61706 2.94905 1.42866 2.6671C1.24026 2.38514 1.1397 2.05365 1.1397 1.71454C1.1397 1.25984 1.32032 0.823764 1.64182 0.50223C1.96333 0.180697 2.39939 3.77967e-05 2.85409 5.92428e-09ZM2.85409 6.70239C2.31027 6.70209 1.77308 6.58299 1.28009 6.35342C0.787106 6.12385 0.350224 5.78934 0 5.37331C0.183454 5.02278 0.459153 4.72899 0.797345 4.52367C1.13554 4.31835 1.52338 4.20929 1.91902 4.20825C1.96594 4.20852 2.01257 4.21572 2.05738 4.22962C2.57343 4.40898 3.13489 4.40898 3.65094 4.22962C3.69575 4.21572 3.74238 4.20852 3.78931 4.20825C4.18495 4.20926 4.5728 4.31831 4.911 4.52364C5.2492 4.72896 5.52489 5.02276 5.70832 5.37331C5.35801 5.78923 4.92108 6.12361 4.42807 6.35305C3.93506 6.5825 3.39788 6.70149 2.85409 6.70168V6.70239Z" fill="#333333"/>
</svg>
