<svg width="19" height="21" viewBox="0 0 19 21" fill="none" xmlns="http://www.w3.org/2000/svg">
<path d="M18.75 16.6667H3.125C2.84873 16.6667 2.58378 16.7764 2.38843 16.9718C2.19308 17.1671 2.08333 17.4321 2.08333 17.7083C2.08333 17.9846 2.19308 18.2496 2.38843 18.4449C2.58378 18.6403 2.84873 18.75 3.125 18.75H18.75V20.8333H3.125C2.2962 20.8333 1.50134 20.5041 0.915291 19.918C0.32924 19.332 0 18.5371 0 17.7083V2.08333C0 1.5308 0.219493 1.00089 0.610194 0.610194C1.00089 0.219493 1.5308 0 2.08333 0H18.75V16.6667ZM2.08333 14.6354C2.25208 14.601 2.42604 14.5833 2.60417 14.5833H16.6667V2.08333H2.08333V14.6354ZM13.5417 7.29167H5.20833V5.20833H13.5417V7.29167Z" fill="#0D1126" fill-opacity="0.4"/>
</svg>
