<svg width="22" height="20" viewBox="0 0 22 20" fill="none" xmlns="http://www.w3.org/2000/svg">
<path d="M17.1875 8.33333L21.7708 19.7917H19.526L18.275 16.6667H14.0146L12.7656 19.7917H10.5219L15.1042 8.33333H17.1875ZM8.33333 0V2.08333H14.5833V4.16667H12.5333C11.7298 6.5855 10.4474 8.81772 8.7625 10.7302C9.51386 11.4006 10.3288 11.9962 11.1958 12.5083L10.4135 14.4646C9.29429 13.8298 8.24749 13.075 7.29167 12.2135C5.43082 13.8977 3.22713 15.1585 0.832292 15.9094L0.273958 13.9C2.32587 13.2457 4.21669 12.166 5.82292 10.7312C4.63405 9.38535 3.64382 7.87632 2.88229 6.25H5.21562C5.7962 7.32173 6.49236 8.32667 7.29167 9.24687C8.59386 7.74594 9.62011 6.02636 10.3229 4.16771L0 4.16667V2.08333H6.25V0H8.33333ZM16.1458 11.3385L14.8469 14.5833H17.4427L16.1458 11.3385Z" fill="#0D1126" fill-opacity="0.4"/>
</svg>
