<svg width="25" height="25" viewBox="0 0 25 25" fill="none" xmlns="http://www.w3.org/2000/svg">
<path d="M12.5007 22.9167C6.74753 22.9167 2.08398 18.2531 2.08398 12.5C2.08398 6.74687 6.74753 2.08333 12.5007 2.08333C18.2538 2.08333 22.9173 6.74687 22.9173 12.5C22.9173 18.2531 18.2538 22.9167 12.5007 22.9167ZM12.5007 20.8333C14.7108 20.8333 16.8304 19.9554 18.3932 18.3926C19.956 16.8297 20.834 14.7101 20.834 12.5C20.834 10.2899 19.956 8.17024 18.3932 6.60744C16.8304 5.04464 14.7108 4.16666 12.5007 4.16666C10.2905 4.16666 8.1709 5.04464 6.60809 6.60744C5.04529 8.17024 4.16732 10.2899 4.16732 12.5C4.16732 14.7101 5.04529 16.8297 6.60809 18.3926C8.1709 19.9554 10.2905 20.8333 12.5007 20.8333ZM11.459 7.29166H13.5423V9.37499H11.459V7.29166ZM11.459 11.4583H13.5423V17.7083H11.459V11.4583Z" fill="#00318B"/>
</svg>
