<svg width="9" height="6" viewBox="0 0 9 6" fill="none" xmlns="http://www.w3.org/2000/svg">
<path fill-rule="evenodd" clip-rule="evenodd" d="M1.22377 2.4481C1.38509 2.4481 1.54279 2.40028 1.67693 2.31067C1.81107 2.22106 1.91564 2.09369 1.9774 1.94467C2.03917 1.79564 2.05537 1.63165 2.02395 1.47342C1.99253 1.31519 1.9149 1.16983 1.80088 1.05571C1.68686 0.941586 1.54157 0.863829 1.38336 0.83227C1.22516 0.800712 1.06115 0.816764 0.91207 0.878401C0.76299 0.940038 0.635531 1.0445 0.545804 1.17857C0.456077 1.31263 0.408113 1.47027 0.407972 1.63159C0.408123 1.84798 0.494098 2.05547 0.647037 2.20854C0.799977 2.36162 1.00739 2.44777 1.22377 2.4481ZM6.93438 2.4481C7.0957 2.4481 7.25339 2.40028 7.38754 2.31067C7.52168 2.22106 7.62624 2.09369 7.68801 1.94467C7.74978 1.79564 7.76597 1.63165 7.73455 1.47342C7.70313 1.31519 7.6255 1.16983 7.51148 1.05571C7.39746 0.941586 7.25217 0.863829 7.09396 0.83227C6.93576 0.800712 6.77176 0.816764 6.62268 0.878401C6.4736 0.940038 6.34613 1.0445 6.25641 1.17857C6.16668 1.31263 6.11872 1.47027 6.11858 1.63159C6.11873 1.84798 6.2047 2.05547 6.35764 2.20854C6.51058 2.36162 6.71799 2.44777 6.93438 2.4481ZM7.34221 2.85565H6.5264C6.31083 2.85567 6.10408 2.94127 5.95157 3.09362C6.20981 3.23387 6.43119 3.43325 6.59757 3.67548C6.76396 3.91771 6.87063 4.19589 6.90887 4.48726H7.7496C7.80315 4.48731 7.85619 4.47681 7.90567 4.45635C7.95516 4.43589 8.00013 4.40589 8.03801 4.36803C8.07589 4.33018 8.10593 4.28524 8.12642 4.23576C8.14691 4.18629 8.15745 4.13327 8.15743 4.07972V3.67217C8.15732 3.45588 8.07144 3.24845 7.91861 3.09538C7.76579 2.94232 7.5585 2.8561 7.34221 2.85565ZM4.079 2.85565C4.36141 2.85567 4.63748 2.77197 4.8723 2.61509C5.10713 2.45822 5.29015 2.23522 5.39824 1.97432C5.50634 1.71342 5.53463 1.42634 5.47956 1.14936C5.42448 0.872378 5.2885 0.61794 5.08882 0.41824C4.88914 0.21854 4.63473 0.082554 4.35775 0.0274494C4.08078 -0.0276553 3.79368 0.000600714 3.53277 0.108666C3.27186 0.21673 3.04886 0.399736 2.89196 0.634544C2.73506 0.869352 2.65132 1.14543 2.65132 1.42783C2.65119 1.61536 2.68802 1.80108 2.75972 1.97436C2.83142 2.14764 2.93658 2.30509 3.06917 2.4377C3.20177 2.57031 3.35921 2.67547 3.53248 2.74719C3.70576 2.81891 3.89147 2.85576 4.079 2.85565ZM5.05796 3.26321H4.95223C4.68095 3.39816 4.38207 3.46839 4.07907 3.46839C3.77608 3.46839 3.4772 3.39816 3.20592 3.26321H3.10004C2.71054 3.26347 2.33709 3.41835 2.06174 3.69383C1.78639 3.96931 1.63168 4.34285 1.6316 4.73235V5.09999C1.63164 5.18031 1.6475 5.25983 1.67827 5.33402C1.70904 5.40821 1.75412 5.47562 1.81094 5.53239C1.86776 5.58915 1.9352 5.63417 2.00941 5.66487C2.08363 5.69557 2.16317 5.71135 2.24349 5.71131H5.91452C5.99483 5.71135 6.07437 5.69557 6.14859 5.66487C6.22281 5.63417 6.29025 5.58915 6.34707 5.53239C6.40389 5.47562 6.44897 5.40821 6.47974 5.33402C6.51051 5.25983 6.52637 5.18031 6.5264 5.09999V4.73235C6.52633 4.34285 6.37162 3.96931 6.09627 3.69383C5.82092 3.41835 5.44746 3.26347 5.05796 3.26321ZM2.20658 3.09362C2.05403 2.94124 1.84722 2.85564 1.6316 2.85565H0.815799C0.599405 2.85595 0.391971 2.94211 0.239024 3.09519C0.0860763 3.24827 0.000113051 3.45578 2.50614e-08 3.67217V4.07972C-1.87614e-05 4.13328 0.0105247 4.18632 0.0310258 4.2358C0.0515268 4.28528 0.081583 4.33023 0.119476 4.36809C0.157369 4.40594 0.202355 4.43595 0.251859 4.4564C0.301362 4.47685 0.354412 4.48733 0.407972 4.48726H1.24871C1.28733 4.19594 1.39423 3.91787 1.56068 3.67569C1.72714 3.43351 1.94845 3.23407 2.20658 3.09362Z" fill="#333333"/>
</svg>
