<svg width="26" height="25" viewBox="0 0 26 25" fill="none" xmlns="http://www.w3.org/2000/svg">
<path d="M18.0078 6.87012C20.9784 6.87036 23.3945 9.28715 23.3945 12.2578C23.3945 14.0807 22.4828 15.6919 21.0938 16.667C23.5756 17.8312 25.2988 20.354 25.2988 23.2725V24.1045H10.7158V23.2725C10.7158 20.3545 12.4388 17.8325 14.9199 16.668C13.531 15.6928 12.6202 14.0806 12.6201 12.2578C12.6201 9.28701 15.037 6.87012 18.0078 6.87012ZM1.76367 15.2441V19.458H6.8125L5.98047 18.626L6.05078 18.5547L7.08691 17.5195L7.15723 17.4482L9.99902 20.29L9.92871 20.3613L7.22852 23.0615L7.15723 23.1318L5.98047 21.9551L6.05078 21.8838L6.8125 21.123H0.0996094V15.2441H1.76367ZM18.0078 17.6455C15.1882 17.6455 12.847 19.7303 12.4434 22.4395H23.5713C23.1677 19.7305 20.8273 17.6457 18.0078 17.6455ZM18.0078 8.53516C15.9552 8.53516 14.2842 10.2052 14.2842 12.2578C14.2843 14.3104 15.9552 15.9805 18.0078 15.9805C20.0602 15.9802 21.7304 14.3102 21.7305 12.2578C21.7305 10.2053 20.0602 8.53539 18.0078 8.53516ZM5.65137 0.892578C7.94566 0.892578 9.81226 2.75845 9.8125 5.05273C9.8125 6.33099 9.23164 7.4747 8.32227 8.23828C10.0375 9.18382 11.204 11.0076 11.2041 13.1016V13.9346H0.0996094V13.1016C0.0996999 11.0078 1.26544 9.1839 2.98047 8.23828C2.07132 7.4747 1.49023 6.33081 1.49023 5.05273C1.49047 2.75861 3.35723 0.892764 5.65137 0.892578ZM5.65137 9.21387C3.79376 9.21403 2.23661 10.5247 1.85449 12.2695H9.44922C9.06705 10.5246 7.50914 9.21387 5.65137 9.21387ZM5.65137 2.55664C4.27538 2.5568 3.15551 3.67672 3.15527 5.05273C3.15527 6.42895 4.27523 7.54867 5.65137 7.54883C7.02763 7.54883 8.14746 6.429 8.14746 5.05273C8.14722 3.67667 7.02749 2.55664 5.65137 2.55664Z" fill="#0D1126" fill-opacity="0.4" stroke="#9EA0A8" stroke-width="0.2"/>
</svg>
