<svg width="9" height="5" viewBox="0 0 9 5" fill="none" xmlns="http://www.w3.org/2000/svg">
<path fill-rule="evenodd" clip-rule="evenodd" d="M7.99368 1.13395L4.41085 0.0438159C4.21481 -0.0146053 4.00598 -0.0146053 3.80994 0.0438159L0.226971 1.13395C0.162222 1.1498 0.104668 1.18691 0.063517 1.23936C0.0223664 1.2918 0 1.35656 0 1.42322C0 1.48988 0.0223664 1.5546 0.063517 1.60705C0.104668 1.65949 0.162222 1.6966 0.226971 1.71246L0.851682 1.90342C0.711568 2.07123 0.630815 2.28062 0.621976 2.49905C0.561328 2.53048 0.509992 2.57728 0.473094 2.63477C0.436196 2.69225 0.41503 2.7584 0.411712 2.82663C0.408395 2.89486 0.42304 2.96278 0.454186 3.02357C0.485332 3.08437 0.531891 3.1359 0.589204 3.17306L0.261456 4.63367C0.254946 4.66349 0.255242 4.69442 0.26232 4.72412C0.269397 4.75382 0.283075 4.78153 0.302338 4.80521C0.321602 4.8289 0.345955 4.84797 0.373587 4.86095C0.40122 4.87393 0.431424 4.88052 0.461953 4.88022H1.18256C1.2131 4.88054 1.24332 4.87395 1.27097 4.86098C1.29862 4.84801 1.323 4.82897 1.34228 4.80528C1.36155 4.7816 1.37525 4.75386 1.38233 4.72415C1.38942 4.69445 1.38971 4.66351 1.3832 4.63367L1.05545 3.17306C1.11197 3.13646 1.15805 3.08585 1.18919 3.02615C1.22033 2.96644 1.23548 2.89967 1.23316 2.83237C1.23083 2.76507 1.21112 2.69952 1.17593 2.64211C1.14074 2.58469 1.09128 2.53738 1.03237 2.50476C1.03736 2.41177 1.06398 2.32125 1.11012 2.24036C1.15626 2.15946 1.22063 2.09043 1.29813 2.03879L3.81008 2.80259C4.00595 2.86221 4.21513 2.86221 4.41099 2.80259L7.99396 1.71389C8.0584 1.69744 8.11553 1.66 8.15631 1.60747C8.1971 1.55493 8.21922 1.49032 8.21919 1.42381C8.21916 1.3573 8.19697 1.29269 8.15613 1.24019C8.11529 1.1877 8.05813 1.15033 7.99368 1.13395ZM4.53098 3.19161C4.25632 3.27477 3.96319 3.27477 3.68853 3.19161L1.8258 2.62447L1.64369 4.06653C1.64369 4.51682 2.74776 4.88022 4.10976 4.88022C5.47175 4.88022 6.57582 4.51682 6.57582 4.06653L6.39371 2.62447L4.53098 3.19161Z" fill="#333333"/>
</svg>
