<svg width="25" height="25" viewBox="0 0 25 25" fill="none" xmlns="http://www.w3.org/2000/svg">
<path d="M7.29232 5.20832V2.08332C7.29232 1.80706 7.40206 1.5421 7.59741 1.34675C7.79277 1.1514 8.05772 1.04166 8.33398 1.04166H16.6673C16.9436 1.04166 17.2085 1.1514 17.4039 1.34675C17.5992 1.5421 17.709 1.80706 17.709 2.08332V5.20832H21.8757C22.1519 5.20832 22.4169 5.31807 22.6122 5.51342C22.8076 5.70877 22.9173 5.97372 22.9173 6.24999V20.8333C22.9173 21.1096 22.8076 21.3745 22.6122 21.5699C22.4169 21.7652 22.1519 21.875 21.8757 21.875H3.12565C2.84938 21.875 2.58443 21.7652 2.38908 21.5699C2.19373 21.3745 2.08398 21.1096 2.08398 20.8333V6.24999C2.08398 5.97372 2.19373 5.70877 2.38908 5.51342C2.58443 5.31807 2.84938 5.20832 3.12565 5.20832H7.29232ZM20.834 13.5417H4.16732V19.7917H20.834V13.5417ZM20.834 7.29166H4.16732V11.4583H7.29232V9.37499H9.37565V11.4583H15.6257V9.37499H17.709V11.4583H20.834V7.29166ZM9.37565 3.12499V5.20832H15.6257V3.12499H9.37565Z" fill="#0D1126" fill-opacity="0.4"/>
</svg>
